<svg xmlns="http://www.w3.org/2000/svg" width="198" height="202" viewBox="0 0 198 202"><g fill="none" fill-rule="evenodd"><g transform="translate(2 2) translate(10)"><path stroke="#dce1e4" stroke-width="3.976" d="m113.382413 151.888668 26.779141 46.520875"/><rect width="174.96" height="118.887" x="-.281" y="18.091" fill="#f8f9fa" stroke="#dce1e4" stroke-width="1.193" rx="1.59"/><g fill="#edf0f1"><path d="m164.335086 81.2732123 2.654651 4.1237479h-5.309301z" transform="matrix(-.70710678 -.70710678 .70710678 -.70710678 221.610735 258.464344)"/><path d="m154.335086 128.273212 2.654651 4.123748h-5.309301z" transform="matrix(-.70710678 -.70710678 .70710678 -.70710678 171.305649 331.627295)"/><path d="m9.33984893 113.149924 5.30506977 5.608204h-10.61013951z" transform="matrix(.57357644 -.81915204 .81915204 .57357644 -91.001246 57.096285)"/><path d="m33.3398489 35.1499235 5.3050698 5.6082041h-10.6101395z" transform="matrix(-.22495105 .97437006 -.97437006 -.22495105 77.82095 14.006473)"/><path d="m156.339849 69.1499235 5.30507 5.6082041h-10.61014z" transform="matrix(.70710678 .70710678 -.70710678 .70710678 96.670061 -89.474121)"/><path d="m57.5271892 121.713152 2.6546502 4.123748h-5.3093005z" transform="matrix(-.70710678 -.70710678 .70710678 -.70710678 10.682894 251.975052)"/></g><path stroke="#dce1e4" stroke-width="3.976" d="m56.8486708 154.671968-23.605317 44.333996"/><path stroke="#dce1e4" stroke-width="3.976" d="m86.9880716 155.467197v38.137197"/><path stroke="#bcc5ca" stroke-width="3.976" d="m113.382413 151.888668 6.824761 11.856013" opacity=".5"/><path stroke="#bcc5ca" stroke-width="3.976" d="m56.8486708 154.671968-5.2778319 9.912486" opacity=".5"/><path stroke="#bcc5ca" stroke-width="3.976" d="m86.9880716 155.467197v18.139999" opacity=".5"/><rect width="134.888" height="80.716" x="21.755" y="41.569" fill="#edf0f1" rx=".795"/><rect width="136.08" height="81.909" x="19.158" y="37.972" fill="#fff" stroke="#dce1e4" stroke-width="1.193" rx=".795"/><rect width="5.954" height="13.917" x="84.222" y="-.596" fill="#dce1e4" stroke="#dce1e4" stroke-width="1.193" rx=".795"/><rect width="49.194" height="18.688" x="62.601" y="13.133" fill="#dce1e4" rx="2.386"/><rect width="50.387" height="19.881" x="62.005" y="10.537" fill="#f8f9fa" stroke="#dce1e4" stroke-width="1.193" rx="2.386"/></g><g stroke="#dce1e4" transform="translate(2 2)"><rect width="195.193" height="19.085" x="-.596" y="135.785" fill="#f8f9fa" stroke-width="1.193" rx=".795"/><path stroke-linecap="square" stroke-width="2" d="m78.5 15.5h15.0332964"/><path stroke-linecap="square" stroke-width="2" d="m97.125 15.5h3.758324"/></g></g></svg>